<?xml version="1.0" encoding="UTF-8" standalone="no"?><!DOCTYPE svg PUBLIC "-//W3C//DTD SVG 1.1//EN" "http://www.w3.org/Graphics/SVG/1.1/DTD/svg11.dtd"><svg width="100%" height="100%" viewBox="0 0 867 867" version="1.1" xmlns="http://www.w3.org/2000/svg" xmlns:xlink="http://www.w3.org/1999/xlink" xml:space="preserve" xmlns:serif="http://www.serif.com/" style="fill-rule:evenodd;clip-rule:evenodd;stroke-linejoin:round;stroke-miterlimit:2;"><rect x="95.833" y="114.266" width="675" height="625" style="fill:#4c4c4c;"/><path id="surface1" d="M693.49,0l-533.448,0c-88.362,0 -160.042,71.68 -160.042,160.042l0,533.448c0,88.362 71.68,160.042 160.042,160.042l533.448,0c88.362,0 160.042,-71.68 160.042,-160.042l0,-533.448c0,-88.362 -71.68,-160.042 -160.042,-160.042Zm-76.937,571.029l-45.655,45.524c-8.333,8.333 -21.923,8.333 -30.257,0l-113.867,-113.867l-113.883,113.867c-8.334,8.333 -21.924,8.333 -30.258,-0.13l-45.654,-45.394c-8.203,-8.464 -8.203,-21.924 0,-30.388l113.867,-113.867l-113.737,-113.753c-8.333,-8.464 -8.333,-22.054 0,-30.388l45.524,-45.524c8.334,-8.463 22.054,-8.463 30.388,0l113.753,113.737l113.867,-113.737c8.334,-8.463 22.054,-8.463 30.257,0l45.655,45.394c8.333,8.464 8.333,22.054 0,30.518l-113.867,113.753l113.867,113.867c8.203,8.464 8.203,21.924 0,30.388Z" style="fill:#fff;fill-rule:nonzero;"/></svg>