<?xml version="1.0" encoding="UTF-8" standalone="no"?><!DOCTYPE svg PUBLIC "-//W3C//DTD SVG 1.1//EN" "http://www.w3.org/Graphics/SVG/1.1/DTD/svg11.dtd"><svg width="100%" height="100%" viewBox="0 0 8892 8892" version="1.1" xmlns="http://www.w3.org/2000/svg" xmlns:xlink="http://www.w3.org/1999/xlink" xml:space="preserve" xmlns:serif="http://www.serif.com/" style="fill-rule:evenodd;clip-rule:evenodd;stroke-linejoin:round;stroke-miterlimit:2;"><path id="surface1" d="M4444.46,2777.78c-717.489,0 -1327.38,455.866 -1561.67,1092.46c-24.639,67.69 -14.707,143.144 26.61,202.153c41.318,59.008 108.823,94.15 180.858,94.15c0.002,0.123 0.004,0.123 0.006,0.123c157.682,0 302.046,-88.419 373.7,-228.88c182.294,-358.609 550.57,-604.454 980.497,-604.454c307.075,0 581.596,126.955 781.25,329.863l-503.475,503.471l1388.89,0l0,-1388.89l-494.792,494.792c-301.65,-301.65 -712.891,-494.792 -1171.88,-494.792Zm-1666.67,1944.44l0,1388.89l494.791,-494.792c301.65,301.65 712.888,494.792 1171.88,494.792c717.457,0 1327.32,-455.833 1561.64,-1092.39c24.649,-67.706 14.716,-143.18 -26.61,-202.204c-41.326,-59.024 -108.848,-94.176 -180.902,-94.176c-0.002,-0.123 -0.004,-0.123 -0.006,-0.123c-157.645,0 -301.974,88.402 -373.605,228.833c-182.287,358.634 -550.576,604.5 -980.519,604.5c-307.075,0 -581.6,-126.95 -781.25,-329.858l503.471,-503.475l-1388.89,0Z" style="fill:#000534;fill-rule:nonzero;"/></svg>