<?xml version="1.0" encoding="UTF-8" standalone="no"?><!DOCTYPE svg PUBLIC "-//W3C//DTD SVG 1.1//EN" "http://www.w3.org/Graphics/SVG/1.1/DTD/svg11.dtd"><svg width="100%" height="100%" viewBox="0 0 1667 1667" version="1.1" xmlns="http://www.w3.org/2000/svg" xmlns:xlink="http://www.w3.org/1999/xlink" xml:space="preserve" xmlns:serif="http://www.serif.com/" style="fill-rule:evenodd;clip-rule:evenodd;stroke-linejoin:round;stroke-miterlimit:2;"><path id="surface1" d="M347.221,208.333c-114.204,0 -208.333,94.13 -208.333,208.334l0,208.333l208.333,0l0,625c0,114.204 94.129,208.333 208.333,208.333l763.892,0c114.204,0 208.333,-94.129 208.333,-208.333l0,-208.333l-277.779,0l0,-625c0,-114.204 -94.129,-208.334 -208.333,-208.334l-694.446,0Zm0,138.888l515.137,0c-9.766,23.875 -29.025,42.592 -29.025,69.446l0,69.446l-555.554,0l0,-69.446c0,-39.334 30.109,-69.446 69.442,-69.446Zm208.333,416.667l486.113,0l0,138.891l-486.113,0l0,-138.891Zm0,277.779l486.113,0l0,138.887l-486.113,0l0,-138.887Zm694.446,138.887l138.888,0l0,69.446c0,39.333 -30.109,69.446 -69.442,69.446c-39.333,0 -69.446,-30.113 -69.446,-69.446l0,-69.446Z" style="fill:#000534;fill-rule:nonzero;"/></svg>